<svg width="53" height="46" viewBox="0 0 53 46" fill="none" xmlns="http://www.w3.org/2000/svg">
<rect width="53" height="46" fill="#1D4ED8"/>
<path d="M10.44 9.972V8.172H20.052L14.112 34.2H17.532V36H10.44V34.2H13.284V9.972H10.44Z" fill="white"/>
<path d="M23.1094 21.4805C23.1094 20.4609 23.4727 19.5938 24.1992 18.8789C24.9375 18.1523 25.8223 17.7891 26.8535 17.7891H33.2695C34.4766 17.7891 35.5781 18.0879 36.5742 18.6855C37.5703 19.2715 38.3613 20.0625 38.9473 21.0586C39.5449 22.0547 39.8438 23.1562 39.8438 24.3633V36H36.1348V24.416C36.1348 23.5957 35.8535 22.8984 35.291 22.3242C34.7402 21.75 34.0664 21.4629 33.2695 21.4629H26.8184V36H23.1094V21.4805Z" fill="white"/>
<rect x="22" y="10" width="18" height="6" fill="black"/>
<rect x="0.5" y="0.5" width="52" height="45" stroke="black"/>
</svg>
